# AST/ASF file generated using VICON BodyLanguage
# -----------------------------------------------
:version 1.10
:name VICON
:units
  mass 1.0
  length 0.45
  angle deg
:documentation
   .ast/.asf automatically generated from VICON data using
   VICON BodyBuilder and BodyLanguage model FoxedUp or BRILLIANT.MOD
:root
   order TX TY TZ RX RY RZ
   axis XYZ
   position 0 0 0  
   orientation 0 0 0 
:bonedata
  begin
     id 1 
     name lhipjoint
     direction 0.650112 -0.723553 0.232005 
     length 2.45805 
     axis 0 0 0  XYZ
  end
  begin
     id 2 
     name lfemur
     direction 0.34202 -0.939693 0  
     length 7.00073  
     axis 0 0 20  XYZ
    dof rx ry rz
    limits (-160.0 20.0)
           (-70.0 70.0)
           (-60.0 70.0)
  end
  begin
     id 3 
     name ltibia
     direction 0.34202 -0.939693 0   
     length 7.8748   
     axis 0 0 20   XYZ
    dof rx
    limits (-10.0 170.0)
  end
  begin
     id 4 
     name lfoot
     direction 0.0542825 -0.14914 0.987325   
     length 1.75978   
     axis -90 7.62852e-016 20   XYZ
    dof rx rz
    limits (-45.0 90.0)
           (-70.0 20.0)
  end
  begin
     id 5 
     name ltoes
     direction 1.53509e-011 -4.21906e-011 1   
     length 0.893912   
     axis -90 7.62852e-016 20   XYZ
    dof rx
    limits (-90.0 20.0)
  end
  begin
     id 6 
     name rhipjoint
     direction -0.637897 -0.733345 0.235145   
     length 2.42522  
     axis 0 0 0  XYZ 
  end
  begin
     id 7 
     name rfemur
     direction -0.34202 -0.939693 0   
     length 7.02549   
     axis 0 0 -20   XYZ
    dof rx ry rz
    limits (-160.0 20.0)
           (-70.0 70.0)
           (-70.0 60.0)
  end
  begin
     id 8 
     name rtibia
     direction -0.34202 -0.939693 0   
     length 7.71512   
     axis 0 0 -20   XYZ
    dof rx
    limits (-10.0 170.0)
 end
 begin
     id 9 
     name rfoot
     direction -0.0822618 -0.226012 0.970645   
     length 1.90014  
     axis -90 -7.62852e-016 -20   XYZ
    dof rx rz
    limits (-45.0 90.0)
           (-20.0 70.0)
  end
  begin
     id 10 
     name rtoes
     direction -1.53542e-011 -4.21872e-011 1   
     length 0.957341   
     axis -90 -7.62852e-016 -20   XYZ
    dof rx
    limits (-90.0 20.0)
  end
  begin
     id 11 
     name lowerback
     direction -0.0022947 0.999774 -0.0211557   
     length 1.89909   
     axis 0 0 0   XYZ
    dof rx ry rz
    limits (-20.0 45.0)
           (-30.0 30.0)
           (-30.0 30.0)
  end
  begin
     id 12 
     name upperback
     direction 0.0107737 0.998635 0.0511027   
     length 1.8853   
     axis 0 0 0   XYZ
    dof rx ry rz
    limits (-20.0 45.0)
           (-30.0 30.0)
           (-30.0 30.0)
  end
  begin
     id 13 
     name thorax
     direction 0.011824 0.998136 0.0598754   
     length 1.88911   
     axis 0 0 0   XYZ
    dof rx ry rz
    limits (-20.0 45.0)
           (-30.0 30.0)
           (-30.0 30.0)
  end
  begin
     id 14 
     name lowerneck
     direction -0.0685355 0.990319 0.120714   
     length 1.91222   
     axis 0 0 0   XYZ
    dof rx ry rz
    limits (-20.0 45.0)
           (-30.0 30.0)
           (-30.0 30.0)
  end
  begin
     id 15 
     name upperneck
     direction 0.0886204 0.955665 -0.280805   
     length 1.92526   
     axis 0 0 0   XYZ
    dof rx ry rz
    limits (-20.0 45.0)
           (-30.0 30.0)
           (-30.0 30.0)
  end
  begin
     id 16
     name head
     direction 0.0233423 0.993502 -0.111393  
     length 1.96056  
     axis 0 0 0   XYZ
    dof rx ry rz
    limits (-20.0 45.0)
           (-30.0 30.0)
           (-30.0 30.0)
  end
  begin
     id 17 
     name lclavicle
     direction 0.941873 0.32922 0.0670041  
     length 3.31705  
     axis 0 0 0   XYZ
    dof ry rz
    limits (-20.0 10.0)
           (0.0 20.0)
  end
  begin
     id 18 
     name lhumerus
     direction 1 -4.4898e-011 3.38707e-028   
     length 5.29277   
     axis 180 -30 -90   XYZ
    dof rx ry rz
    limits (-60.0 90.0)
           (-90.0 90.0)
           (-90.0 90.0)
  end
  begin
     id 19
     name lradius
     direction 1 -4.48952e-011 1.63213e-028   
     length 2.85226   
     axis 180 -30 -90   XYZ
    dof rx
    limits (-10.0 170.0)
  end
  begin
     id 20
     name lwrist
     direction 1 -4.49001e-011 1.27856e-027   
     length 1.42613   
     axis -1.61767e-015 90 90   XYZ
    dof ry
    limits (-180.0 0.0)
 end
  begin
     id 21 
     name lhand
     direction 1 -4.48976e-011 2.55931e-027   
     length 0.602097   
     axis -1.63363e-015 90 90   XYZ
    dof rx rz
    limits (-90.0 90.0)
           (-45.0 45.0)
  end
  begin
     id 22 
     name lfingers
     direction 1 -4.48986e-011 5.11684e-027   
     length 0.485426   
     axis -3.26723e-015 90 90   XYZ
    dof rx
    limits (0.0 90.0)
  end
  begin
     id 23
     name lthumb
     direction 0.707107 -6.34915e-011 0.707107   
     length 0.696978   
     axis -90 45 -2.25915e-014   XYZ
    dof rx rz
    limits (-45.0 45.0)
           (-45.0 45.0)
  end
  begin
     id 24 
     name rclavicle
     direction -0.939974 0.327078 0.0973096   
     length 3.10337  
     axis 0 0 0   XYZ 
    dof ry rz
    limits (-10.0 20.0)
           (-20.0 0.0)
  end
  begin
     id 25 
     name rhumerus
     direction -1 -4.48975e-011 1.83745e-027  
     length 5.13304   
     axis 180 30 90   XYZ
    dof rx ry rz
    limits (-90.0 60.0)
           (-90.0 90.0)
           (-90.0 90.0)
  end
  begin
     id 26 
     name rradius
     direction -1 -4.48977e-011 7.1775e-029   
     length 2.74305   
     axis 180 30 90   XYZ
    dof rx
    limits (-10.0 170.0)
  end
  begin
     id 27 
     name rwrist
     direction -1 -4.48977e-011 1.27963e-027   
     length 1.37152   
     axis -1.61767e-015 -90 -90   XYZ
    dof ry
    limits (-180.0 0.0)
  end
  begin
     id 28
     name rhand
     direction -1 -4.4888e-011 2.56782e-027   
     length 0.767976   
     axis -1.63363e-015 -90 -90   XYZ
    dof rx rz
    limits (-90.0 90.0)
           (-45.0 45.0)
  end
  begin
     id 29
     name rfingers
     direction -1 -4.48947e-011 5.12384e-027   
     length 0.619162   
     axis -3.26723e-015 -90 -90   XYZ
    dof rx
    limits (0.0 90.0)
  end
  begin
     id 30
     name rthumb
     direction -0.707107 -6.34857e-011 0.707107   
     length 0.888997   
     axis -90 -45 2.25915e-014   XYZ
    dof rx rz
    limits (-45.0 45.0)
           (-45.0 45.0)
  end
:hierarchy
  begin
    root lhipjoint rhipjoint lowerback
    lhipjoint lfemur
    lfemur ltibia
    ltibia lfoot
    lfoot ltoes
    rhipjoint rfemur
    rfemur rtibia
    rtibia rfoot
    rfoot rtoes
    lowerback upperback
    upperback thorax
    thorax lowerneck lclavicle rclavicle
    lowerneck upperneck
    upperneck head
    lclavicle lhumerus
    lhumerus lradius
    lradius lwrist
    lwrist lhand lthumb
    lhand lfingers
    rclavicle rhumerus
    rhumerus rradius
    rradius rwrist
    rwrist rhand rthumb
    rhand rfingers
  end

#!OML:ASF F:\VICON\USERDATA\INSTALL\rory3\rory3.ASF
:FULLY-SPECIFIED
:DEGREES
817
root 0.150875 17.2031 -0.855122 0.176662 15.8829 3.70335
lowerback 7.42935 1.87349 -0.996508
upperback 4.28549 2.53401 7.2238
thorax -0.0847232 1.20904 7.94868
lowerneck -10.8528 -0.804122 -4.81411
upperneck 10.9475 -4.82889 36.0681
head 6.4688 -0.162012 13.2379
rclavicle 3.93594e-014 6.36111e-015
rhumerus -13.5112 -24.3681 -71.4906
rradius 132.801
rwrist 33.5512
rhand 24.5332 10.2086
rfingers 7.12502
rthumb 48.7322 -11.6552
lclavicle 3.93594e-014 6.36111e-015
lhumerus 54.9658 -19.0971 61.6147
lradius 125.992
lwrist 36.2682
lhand 22.8072 49.986
lfingers 7.12502
lthumb 47.1406 72.59
rfemur -4.5759 1.19893 14.8138
rtibia 25.8628
rfoot -18.0639 -17.5044
rtoes -22.5785
lfemur -8.8109 -17.4614 -22.0445
ltibia 22.2135
lfoot -12.1617 -2.0869
ltoes -18.0655
818
root 0.150711 17.202 -0.865713 0.251155 15.9222 3.78275
lowerback 7.50417 1.84043 -0.996757
upperback 4.2889 2.49266 7.26393
thorax -0.118083 1.18869 7.99425
lowerneck -10.7892 -0.801262 -4.76084
upperneck 10.8782 -4.79705 35.9697
head 6.42003 -0.162565 13.1736
rclavicle 5.56597e-015 -3.81667e-014
rhumerus -13.6856 -24.3725 -71.4057
rradius 132.838
rwrist 33.5926
rhand 24.62 10.4959
rfingers 7.12502
rthumb 48.8121 -11.329
lclavicle 5.56597e-015 -3.81667e-014
lhumerus 54.3317 -20.0405 61.8424
lradius 126.413
lwrist 36.1221
lhand 22.3629 49.837
lfingers 7.12502
lthumb 46.7296 72.6215
rfemur -4.72308 1.1809 14.7195
rtibia 25.9682
rfoot -18.0582 -17.4893
rtoes -22.4343
lfemur -8.94347 -17.4274 -22.102
ltibia 22.2553
lfoot -12.0547 -2.11147
ltoes -18.5425
819
root 0.150332 17.2013 -0.87766 0.332491 15.977 3.8698
lowerback 7.61874 1.85977 -0.888504
upperback 4.25772 2.52942 7.21927
thorax -0.213556 1.21165 7.87516
lowerneck -10.6626 -0.836201 -4.5785
upperneck 10.7094 -4.80978 35.9269
head 6.34081 -0.187869 13.0948
rclavicle -5.84427e-014 -5.725e-014
rhumerus -13.9725 -24.4889 -71.3121
rradius 132.871
rwrist 33.5313
rhand 24.5405 10.4616
rfingers 7.12502
rthumb 48.7389 -11.3989
lclavicle -5.84427e-014 -5.725e-014
lhumerus 53.8016 -21.2144 61.9149
lradius 126.841
lwrist 35.9093
lhand 21.6963 49.7971
lfingers 7.12502
lthumb 46.1119 72.8449
rfemur -4.87983 1.0694 14.6042
rtibia 26.0691
rfoot -18.0568 -17.453
rtoes -22.4954
lfemur -9.09214 -17.4248 -22.1698
ltibia 22.3022
lfoot -12.0263 -2.1725
ltoes -18.6083
820
root 0.150436 17.2021 -0.889824 0.417467 16.0371 3.91638
lowerback 7.7173 1.82001 -0.771531
upperback 4.23919 2.48768 7.21011
thorax -0.276604 1.19392 7.7976
lowerneck -10.6556 -0.811417 -4.51806
upperneck 10.6751 -4.77595 35.9574
head 6.32153 -0.171765 13.0956
rclavicle -5.68524e-014 7.63333e-014
rhumerus -14.0906 -24.365 -71.33
rradius 132.836
rwrist 33.5033
rhand 24.2025 10.3437
rfingers 7.12502
rthumb 48.428 -11.6669
lclavicle -5.68524e-014 7.63333e-014
lhumerus 53.1547 -22.2222 62.0418
lradius 127.303
lwrist 35.5403
lhand 21.3689 49.6697
lfingers 7.12502
lthumb 45.8081 72.8437
rfemur -5.03267 0.969946 14.5293
rtibia 26.1346
rfoot -18.0508 -17.4135
rtoes -22.4663
lfemur -9.2596 -17.4099 -22.1947
ltibia 22.3539
lfoot -12.0266 -2.24229
ltoes -18.3186
821
root 0.151345 17.1983 -0.901474 0.488285 16.0656 3.91839
lowerback 7.80921 1.77293 -0.663201
upperback 4.25112 2.43545 7.26447
thorax -0.305566 1.16923 7.79626
lowerneck -10.7523 -0.783045 -4.56049
upperneck 10.68 -4.73648 35.9506
head 6.33376 -0.148397 13.1075
rclavicle 4.17448e-014 9.54166e-015
rhumerus -14.1756 -24.2132 -71.2969
rradius 132.903
rwrist 33.4761
rhand 23.6159 10.2617
rfingers 7.12502
rthumb 47.8874 -12.0034
lclavicle 4.17448e-014 9.54166e-015
lhumerus 52.4756 -23.1336 62.2583
lradius 127.825
lwrist 35.0451
lhand 21.3302 49.69
lfingers 7.12502
lthumb 45.7722 72.8788
rfemur -5.18485 0.948052 14.5017
rtibia 26.1784
rfoot -18.0026 -17.4362
rtoes -22.6222
lfemur -9.4292 -17.388 -22.1716
ltibia 22.4134
lfoot -11.9732 -2.29577
ltoes -18.3202
822
root 0.15044 17.1934 -0.911604 0.543916 16.0844 3.87993
lowerback 7.90068 1.73682 -0.531738
upperback 4.26071 2.40001 7.32901
thorax -0.338674 1.15341 7.79104
lowerneck -10.8021 -0.767272 -4.61089
upperneck 10.6259 -4.69412 35.9601
head 6.31856 -0.132707 13.1227
rclavicle -1.07344e-014 -1.90833e-014
rhumerus -14.3055 -24.1249 -71.2598
rradius 133.013
rwrist 33.4562
rhand 23.3292 10.1593
rfingers 7.12502
rthumb 47.6229 -12.2275
lclavicle -1.07344e-014 -1.90833e-014
lhumerus 51.7815 -24.0194 62.4711
lradius 128.403
lwrist 34.5967
lhand 21.3573 49.8833
lfingers 7.12502
lthumb 45.7973 73.0618
rfemur -5.34491 0.991317 14.5275
rtibia 26.2258
rfoot -17.9186 -17.5398
rtoes -22.7869
lfemur -9.5886 -17.3597 -22.0941
ltibia 22.463
lfoot -11.9883 -2.32448
ltoes -18.5941
823
root 0.149106 17.1943 -0.91983 0.596875 16.0894 3.88727
lowerback 7.93052 1.68585 -0.505162
upperback 4.35387 2.33117 7.39557
thorax -0.249627 1.1154 7.85573
lowerneck -10.958 -0.714834 -4.58634
upperneck 10.5704 -4.60872 35.8935
head 6.30947 -0.0891529 13.0918
rclavicle 2.3059e-014 -5.725e-014
rhumerus -14.2889 -24.0535 -71.2331
rradius 133.048
rwrist 33.294
rhand 23.5417 10.0954
rfingers 7.12502
rthumb 47.819 -12.2014
lclavicle 2.3059e-014 -5.725e-014
lhumerus 51.2056 -24.829 62.5539
lradius 128.903
lwrist 34.1411
lhand 21.0593 49.9404
lfingers 7.12502
lthumb 45.5206 73.2319
rfemur -5.48497 0.981374 14.5186
rtibia 26.3165
rfoot -17.8814 -17.5561
rtoes -22.8958
lfemur -9.68675 -17.3447 -22.0707
ltibia 22.4745
lfoot -11.9856 -2.36338
ltoes -18.4925
824
root 0.148111 17.1978 -0.928591 0.640195 16.0871 3.8979
lowerback 7.9879 1.61782 -0.489449
upperback 4.4231 2.24068 7.44591
thorax -0.197381 1.06747 7.90998
lowerneck -10.8394 -0.629829 -4.73419
upperneck 10.2343 -4.37226 36.0914
head 6.13723 -0.0192605 13.2029
rclavicle -2.22639e-014 -1.90833e-014
rhumerus -14.3276 -24.0158 -71.1785
rradius 133.06
rwrist 33.184
rhand 24.1474 10.2301
rfingers 7.12502
rthumb 48.3772 -11.8048
lclavicle -2.22639e-014 -1.90833e-014
lhumerus 50.6242 -25.6688 62.5208
lradius 129.376
lwrist 33.6678
lhand 20.771 49.8085
lfingers 7.12502
lthumb 45.2527 73.2079
rfemur -5.60117 0.909866 14.5032
rtibia 26.4439
rfoot -17.9776 -17.4399
rtoes -22.7687
lfemur -9.74872 -17.3284 -22.059
ltibia 22.441
lfoot -11.8497 -2.43244
ltoes -18.1511
825
root 0.149678 17.2001 -0.937772 0.75754 16.0521 4.02012
lowerback 8.0459 1.56768 -0.480618
upperback 4.45662 2.17381 7.42036
thorax -0.183785 1.033 7.88252
lowerneck -10.4119 -0.559568 -5.10423
upperneck 9.46737 -3.99809 36.5954
head 5.75548 0.052826 13.4747
rclavicle -4.6118e-014 -9.54166e-015
rhumerus -14.3994 -24.0913 -71.0875
rradius 133.058
rwrist 33.1169
rhand 24.681 10.4625
rfingers 7.12502
rthumb 48.8682 -11.3348
lclavicle -4.6118e-014 -9.54166e-015
lhumerus 50.0338 -26.4929 62.4313
lradius 129.9
lwrist 33.2836
lhand 20.5384 49.4557
lfingers 7.12502
lthumb 45.0363 72.9409
rfemur -5.81352 0.802646 14.3405
rtibia 26.6278
rfoot -18.0671 -17.3174
rtoes -22.7825
lfemur -9.81374 -17.3 -22.1706
ltibia 22.3335
lfoot -11.7578 -2.47248
ltoes -17.767
826
root 0.152135 17.1998 -0.946358 0.894369 16.0162 4.158
lowerback 8.09822 1.53845 -0.455046
upperback 4.48917 2.13527 7.36823
thorax -0.170769 1.01326 7.81379
lowerneck -10.2327 -0.511456 -5.28691
upperneck 8.94809 -3.75609 36.9069
head 5.52092 0.106572 13.6343
rclavicle 1.98785e-014 -6.36111e-015
rhumerus -14.5386 -24.1624 -71.0142
rradius 133.11
rwrist 33.0399
rhand 24.6133 10.5741
rfingers 7.12502
rthumb 48.8059 -11.2538
lclavicle 1.98785e-014 -6.36111e-015
lhumerus 49.4549 -27.4601 62.2334
lradius 130.486
lwrist 32.7011
lhand 19.8681 49.2565
lfingers 7.12502
lthumb 44.4122 72.9839
rfemur -6.04394 0.710374 14.1539
rtibia 26.7974
rfoot -18.114 -17.2493
rtoes -22.6692
lfemur -9.89235 -17.2681 -22.296
ltibia 22.2245
lfoot -11.6994 -2.48273
ltoes -16.8414
827
root 0.15223 17.2003 -0.953067 1.01367 15.9724 4.30596
lowerback 8.17097 1.53345 -0.427676
upperback 4.51626 2.12966 7.28776
thorax -0.178483 1.01083 7.7096
lowerneck -10.1963 -0.491116 -5.28109
upperneck 8.58958 -3.62155 37.0156
head 5.37952 0.136285 13.6657
rclavicle 6.99722e-014 -1.27222e-014
rhumerus -14.7807 -24.2891 -70.9869
rradius 133.179
rwrist 32.9875
rhand 24.3993 10.5639
rfingers 7.12502
rthumb 48.6091 -11.3596
lclavicle 6.99722e-014 -1.27222e-014
lhumerus 49.0381 -28.6261 61.83
lradius 131.061
lwrist 32.0401
lhand 19.344 49.5291
lfingers 7.12502
lthumb 43.9235 73.4404
rfemur -6.23266 0.719935 13.9777
rtibia 26.9249
rfoot -18.1673 -17.2073
rtoes -22.2429
lfemur -9.96094 -17.2299 -22.4259
ltibia 22.1348
lfoot -11.6097 -2.49325
ltoes -17.095
